# xmcd
#
# Track frame offsets:
#	150
#	27225
#	51998
#	74715
#	96596
#	113542
#	137678
#	147249
#	165682
#
# Disc length: 2602 seconds
#
# Revision: 13
# Processed by: cddbd v1.5.2PL0 Copyright (c) Steve Scherf et al.
# Submitted via: Jack! The Knife 20 Magnifico
#
DISCID=850a2809
DTITLE=Black Sabbath - The Eternal Idol
DYEAR=1987
DGENRE=Metal
TTITLE0=The Shining
TTITLE1=Ancient Warrior
TTITLE2=Hard Life To Love
TTITLE3=Glory Ride
TTITLE4=Born To Lose
TTITLE5=Nightmare
TTITLE6=Scarlet Pimpernel
TTITLE7=Lost Forever
TTITLE8=Eternal Idol
EXTD=Jeff Glixman, Vic Coppersmith-Heaven, Chris Tsangarides
EXTT0=Martin, Iommi, Daisley, Singer, Nicholls
EXTT1=Martin, Iommi, Daisley, Singer, Nicholls
EXTT2=Martin, Iommi, Daisley, Singer, Nicholls
EXTT3=Martin, Iommi, Daisley, Singer, Nicholls
EXTT4=Martin, Iommi, Daisley, Singer, Nicholls
EXTT5=Martin, Iommi, Daisley, Singer, Nicholls
EXTT6=Martin, Iommi, Daisley, Singer, Nicholls
EXTT7=Martin, Iommi, Daisley, Singer, Nicholls
EXTT8=Martin, Iommi, Daisley, Singer, Nicholls
PLAYORDER=
